# xmcd
#
# Track frame offsets: 
#        150
#        14129
#        25936
#        44236
#        63114
#        78753
#        95065
#        107538
#        124745
#        133818
#        155678
#        174070
#
# Disc length: 2571 seconds
#
# Revision: 0
# Processed by: cddbd v1.5.2PL0 Copyright (c) Steve Scherf et al.
# Submitted via: ExactAudioCopy v0.95b4
#
DISCID=9c0a090c
DTITLE=The Blues Band - Ready
DYEAR=1980
DGENRE=Blues
TTITLE0=Twentynine ways
TTITLE1=Find yourself another fool
TTITLE2=Noah Lewis blues
TTITLE3=Hallelujah I love her so
TTITLE4=Treat her right
TTITLE5=Lonely avenue
TTITLE6=I'm ready
TTITLE7=Green stuff
TTITLE8=Hey, hey, little girl
TTITLE9=Can't hold on
TTITLE10=Sus blues
TTITLE11=The cat
EXTD=
EXTT0=
EXTT1=
EXTT2=
EXTT3=
EXTT4=
EXTT5=
EXTT6=
EXTT7=
EXTT8=
EXTT9=
EXTT10=
EXTT11=
PLAYORDER=
